<?xml version="1.0" encoding="iso-8859-1"?>
<!-- Generator: Adobe Illustrator 18.0.0, SVG Export Plug-In . SVG Version: 6.00 Build 0)  -->
<!DOCTYPE svg PUBLIC "-//W3C//DTD SVG 1.1//EN" "http://www.w3.org/Graphics/SVG/1.1/DTD/svg11.dtd">
<svg version="1.1" id="Capa_1" xmlns="http://www.w3.org/2000/svg" xmlns:xlink="http://www.w3.org/1999/xlink" x="0px" y="0px"
	 viewBox="0 0 60 60" style="enable-background:new 0 0 60 60;" xml:space="preserve">
<g>
	<path style="fill:#556080;" d="M59,31h-5c-0.553,0-1-0.448-1-1s0.447-1,1-1h5c0.553,0,1,0.448,1,1S59.553,31,59,31z"/>
	<path style="fill:#556080;" d="M34,31h-8c-0.552,0-1-0.448-1-1s0.448-1,1-1h8c0.552,0,1,0.448,1,1S34.552,31,34,31z"/>
	<path style="fill:#556080;" d="M6,31H1c-0.552,0-1-0.448-1-1s0.448-1,1-1h5c0.552,0,1,0.448,1,1S6.552,31,6,31z"/>
	<path style="fill:#7383BF;" d="M6,49.542V10.458C6,9.101,7.101,8,8.458,8h15.083C24.899,8,26,9.101,26,10.458v39.083
		C26,50.899,24.899,52,23.542,52H8.458C7.101,52,6,50.899,6,49.542z"/>
	<path style="fill:#26B99A;" d="M34,44.542V15.458C34,14.101,35.101,13,36.458,13h15.083C52.899,13,54,14.101,54,15.458v29.083
		C54,45.899,52.899,47,51.542,47H36.458C35.101,47,34,45.899,34,44.542z"/>
</g>
</svg>
