<?xml version="1.0" encoding="iso-8859-1"?>
<!-- Generator: Adobe Illustrator 18.0.0, SVG Export Plug-In . SVG Version: 6.00 Build 0)  -->
<!DOCTYPE svg PUBLIC "-//W3C//DTD SVG 1.1//EN" "http://www.w3.org/Graphics/SVG/1.1/DTD/svg11.dtd">
<svg version="1.1" id="Capa_1" xmlns="http://www.w3.org/2000/svg" xmlns:xlink="http://www.w3.org/1999/xlink" x="0px" y="0px"
	 viewBox="0 0 59 59" style="enable-background:new 0 0 59 59;" xml:space="preserve">
<g>
	<g>
		<path style="fill:#26B99A;" d="M13,16.81c0-2.104,1.706-3.81,3.81-3.81H47V4.81C47,2.706,45.294,1,43.19,1H4.81
			C2.706,1,1,2.706,1,4.81v38.38C1,45.294,2.706,47,4.81,47H13V16.81z"/>
		<path style="fill:#26B99A;" d="M14,48H4.81C2.157,48,0,45.842,0,43.19V4.81C0,2.158,2.157,0,4.81,0H43.19
			C45.843,0,48,2.158,48,4.81V14H16.81C15.261,14,14,15.261,14,16.81V48z M4.81,2C3.261,2,2,3.261,2,4.81v38.38
			C2,44.739,3.261,46,4.81,46H12V16.81c0-2.652,2.157-4.81,4.81-4.81H46V4.81C46,3.261,44.739,2,43.19,2H4.81z"/>
	</g>
	<path style="fill:#556080;" d="M55.19,59H16.81C14.706,59,13,57.294,13,55.19V16.81c0-2.104,1.706-3.81,3.81-3.81h38.38
		c2.104,0,3.81,1.706,3.81,3.81v38.38C59,57.294,57.294,59,55.19,59z"/>
</g>
<g>
</g>
<g>
</g>
<g>
</g>
<g>
</g>
<g>
</g>
<g>
</g>
<g>
</g>
<g>
</g>
<g>
</g>
<g>
</g>
<g>
</g>
<g>
</g>
<g>
</g>
<g>
</g>
<g>
</g>
</svg>
