<?xml version="1.0" encoding="utf-8"?>
<!-- Generator: Adobe Illustrator 16.0.0, SVG Export Plug-In . SVG Version: 6.00 Build 0)  -->
<!DOCTYPE svg PUBLIC "-//W3C//DTD SVG 1.1//EN" "http://www.w3.org/Graphics/SVG/1.1/DTD/svg11.dtd">
<svg version="1.1" id="Layer_1" xmlns="http://www.w3.org/2000/svg" xmlns:xlink="http://www.w3.org/1999/xlink" x="0px" y="0px"
	 width="85" height="85" viewBox="0 0 85 85" enable-background="new 0 0 85 85" xml:space="preserve">
<g>
	<rect width="100%" height="100%" fill="white"/>
</g>
<g transform="translate(0,-1)">
	<path fill="#59b4d9" stroke="#59b4d9" stroke-width="0.1rem" d="M68.258,74.317c-5.28,0-9.663-3.918-10.394-9H40.292c-0.73,5.082-5.113,9-10.393,9s-9.663-3.918-10.393-9H4.099
		c-0.829,0-1.5-0.672-1.5-1.5V43.009c0-3.666,2.983-6.648,6.649-6.648h7.15v-9.394c0-0.829,0.671-1.5,1.5-1.5s1.5,0.671,1.5,1.5
		v10.894c0,0.829-0.671,1.5-1.5,1.5h-8.65c-2.012,0-3.649,1.636-3.649,3.648v19.308h15.299c0.829,0,1.5,0.672,1.5,1.5
		c0,4.136,3.364,7.5,7.5,7.5s7.5-3.364,7.5-7.5c0-0.828,0.671-1.5,1.5-1.5h20.359c0.828,0,1.5,0.672,1.5,1.5
		c0,4.136,3.364,7.5,7.5,7.5s7.5-3.364,7.5-7.5c0-0.828,0.672-1.5,1.5-1.5h1.5v-41.22H22.607l26.488,18.783l21.991-14.995
		c0.682-0.466,1.617-0.291,2.084,0.394s0.29,1.618-0.395,2.084L49.923,42.946c-0.518,0.352-1.202,0.348-1.712-0.016l-31.18-22.11
		c-0.533-0.378-0.76-1.057-0.562-1.679c0.198-0.623,0.776-1.045,1.429-1.045h62.359c0.828,0,1.5,0.671,1.5,1.5v44.22
		c0,0.828-0.672,1.5-1.5,1.5h-1.606C77.921,70.399,73.538,74.317,68.258,74.317z"/>
</g>
</svg>
